# xmcd
#
# Track frame offsets: 
#        150
#        19942
#        41163
#        57945
#        73378
#        96781
#        125664
#
# Disc length: 1908 seconds
#
# Revision: 0
# Processed by: cddbd v1.5.2PL0 Copyright (c) Steve Scherf et al.
# Submitted via: ExactAudioCopy v0.99pb4
#
DISCID=67077207
DTITLE=Bo Diddley - Big Bad Bo
DYEAR=1974
DGENRE=Rock
TTITLE0=Bite You
TTITLE1=He's Got All The Whiskey
TTITLE2=Hit Or Miss
TTITLE3=You've Got A Lot Of Nerve
TTITLE4=Stop The Pusher
TTITLE5=Evelee
TTITLE6=I've Been Workin'
EXTD=
EXTT0=
EXTT1=
EXTT2=
EXTT3=
EXTT4=
EXTT5=
EXTT6=
PLAYORDER=
